<svg id="Capa_1" enable-background="new 0 0 512 512" height="512" viewBox="0 0 512 512" width="512" xmlns="http://www.w3.org/2000/svg"><g><path d="m467 10h-422c-24.813 0-45 20.187-45 45v330c0 24.813 20.187 45 45 45h127.333c17.24 30.704 44.106 55.832 77.575 70.707 3.877 1.724 8.306 1.724 12.184 0 33.469-14.875 60.335-40.003 77.575-70.707h127.333c24.813 0 45-20.187 45-45v-330c0-24.813-20.187-45-45-45zm-136 338.512c0 51.65-29.224 98.778-75 121.892-45.776-23.113-75-70.241-75-121.892v-51.561c50.373-20.085 99.627-20.085 150 0zm151 36.488c0 8.271-6.729 15-15 15h-114.176c5.331-16.368 8.176-33.707 8.176-51.488v-61.512c0-5.928-3.491-11.3-8.908-13.707-63.762-28.339-128.422-28.339-192.184 0-5.417 2.407-8.908 7.779-8.908 13.707v61.512c0 17.781 2.845 35.121 8.176 51.488h-114.176c-8.271 0-15-6.729-15-15v-225h205c5.016 0 9.699-2.506 12.48-6.68l35.547-53.32h198.973zm0-315h-207c-5.016 0-9.699 2.506-12.48 6.68l-35.547 53.32h-196.973v-75c0-8.271 6.729-15 15-15h422c8.271 0 15 6.729 15 15z"/><circle cx="75" cy="85" r="15"/><circle cx="135" cy="85" r="15"/><circle cx="195" cy="85" r="15"/><path d="m234.787 366.394c-5.857-5.857-15.355-5.858-21.213 0s-5.858 15.355 0 21.213l21.213 21.213c2.812 2.813 6.628 4.394 10.606 4.394s7.794-1.581 10.606-4.394l42.426-42.427c5.858-5.858 5.858-15.355 0-21.213-5.857-5.857-15.355-5.858-21.213 0l-31.818 31.82z"/></g></svg>