<svg id="Capa_1" enable-background="new 0 0 512 512" height="512" viewBox="0 0 512 512" width="512" xmlns="http://www.w3.org/2000/svg"><g><path d="m497 451.5h-16.5v-149h15.45c10.219 0 17.454-10.02 14.238-19.72l-60-181c-2.034-6.137-7.772-10.28-14.238-10.28h-44.9v-46c0-8.284-6.716-15-15-15h-60c-8.284 0-15 6.716-15 15v46h-225c-6.466 0-12.204 4.143-14.238 10.28l-60 181c-3.215 9.7 4.019 19.72 14.238 19.72h15.45v149h-16.5c-8.284 0-15 6.716-15 15s6.716 15 15 15h482c8.284 0 15-6.716 15-15s-6.716-15-15-15zm-165.95-391h30v31h-30zm-244.17 61h338.24l50.055 151h-152.406l-56.074-57.018c-5.876-5.975-15.517-5.974-21.392.002l-56.042 57.016h-152.436zm-25.38 181h134.05c4.023 0 7.877-1.616 10.697-4.485l49.756-50.619 49.784 50.622c2.819 2.867 6.673 4.482 10.694 4.482h134.019v149h-149.55v-105c0-8.284-6.716-15-15-15h-59.9c-8.284 0-15 6.716-15 15v105h-149.55zm209.45 149h-29.9v-90h29.9z"/><path d="m346.05 421.5h60c8.284 0 15-6.716 15-15v-60c0-8.284-6.716-15-15-15h-60c-8.284 0-15 6.716-15 15v60c0 8.284 6.716 15 15 15zm15-60h30v30h-30z"/><path d="m166.05 331.5h-60c-8.284 0-15 6.716-15 15v60c0 8.284 6.716 15 15 15h60c8.284 0 15-6.716 15-15v-60c0-8.284-6.716-15-15-15zm-15 60h-30v-30h30z"/></g></svg>