<svg id="Capa_1" enable-background="new 0 0 512 512" height="512" viewBox="0 0 512 512" width="512" xmlns="http://www.w3.org/2000/svg"><g><path d="m327.606 154.393c-5.857-5.858-15.355-5.858-21.213 0l-120 120c-5.858 5.858-5.858 15.355 0 21.213 5.857 5.858 15.355 5.858 21.213 0l4.394-4.394v83.788c0 8.284 6.716 15 15 15h180c8.284 0 15-6.716 15-15v-83.787l4.394 4.394c5.857 5.857 15.355 5.858 21.213 0s5.858-15.355 0-21.213zm64.394 205.607h-60v-45c0-8.284-6.716-15-15-15s-15 6.716-15 15v45h-60v-98.787l75-75 75 75z"/><path d="m497 90h-45v-30h45c8.284 0 15-6.716 15-15s-6.716-15-15-15h-407v-15c0-8.284-6.716-15-15-15h-60c-8.284 0-15 6.716-15 15v482c0 8.284 6.716 15 15 15h60c8.284 0 15-6.716 15-15v-437h92v30h-45c-8.284 0-15 6.716-15 15v330c0 8.284 6.716 15 15 15h360c8.284 0 15-6.716 15-15v-330c0-8.284-6.716-15-15-15zm-437 392h-30v-452h30zm152-422h210v30h-210zm270 360h-330v-300h330z"/></g></svg>