<svg id="Capa_1" enable-background="new 0 0 512 512" height="512" viewBox="0 0 512 512" width="512" xmlns="http://www.w3.org/2000/svg"><g><path d="m173.216 278.594c0 8.286 6.717 15.003 15.003 15.003h135.561c8.286 0 15.003-6.717 15.003-15.003v-105.495h15.122c6.424 0 12.136-4.09 14.204-10.172s.035-12.807-5.057-16.724l-97.906-75.311c-5.392-4.147-12.903-4.147-18.295 0l-97.906 75.311c-5.092 3.917-7.126 10.641-5.057 16.724 2.069 6.082 7.78 10.172 14.204 10.172h15.122v105.495zm135.561-15.004h-37.773v-30.183c0-8.286-6.717-15.003-15.003-15.003s-15.003 6.717-15.003 15.003v30.183h-37.773v-90.492h105.554v90.492zm-52.777-161.877 53.793 41.379h-107.586z"/><path d="m508.356 283.858c-2.85-3.303-6.997-5.202-11.36-5.202h-79.428c15.173-29.278 26.652-61.116 26.652-90.436 0-103.784-84.435-188.22-188.22-188.22s-188.22 84.436-188.22 188.22c0 29.32 11.479 61.158 26.652 90.436h-49.301c-7.437 0-13.751 5.448-14.841 12.805l-30.128 203.337c-.64 4.315.631 8.696 3.481 12s6.997 5.202 11.361 5.202h451.866c7.437 0 13.751-5.448 14.841-12.805l30.127-203.337c.64-4.315-.631-8.696-3.482-12zm-28.739 24.736-13.949 94.142-106.306-37.208c2.127-2.608 4.24-5.235 6.327-7.884 10.143-12.871 22.662-29.844 34.701-49.051h79.227zm-223.617-278.587c87.239 0 158.214 70.974 158.214 158.213 0 36.891-25.365 90.71-69.593 147.656-17.795 22.913-37.518 44.682-55.536 61.296-7.201 6.64-13.209 11.597-18.08 15.257v-73.587c0-8.286-6.717-15.003-15.003-15.003s-15.003 6.717-15.003 15.003v73.587c-4.871-3.66-10.879-8.617-18.08-15.257-18.018-16.614-37.741-38.383-55.536-61.296-44.228-56.946-69.593-110.765-69.593-147.656-.003-87.239 70.971-158.213 158.21-158.213zm-197.925 278.656 53.583.001c9.737 15.534 19.737 29.533 28.591 41.156l-95.335 47.668zm-18.529 125.056 119.785-60.128c12.96 15.345 26.349 29.653 39.113 41.772l-27.755 66.629h-138.296zm163.649 48.274 19.166-46.011c18.256 13.851 27.779 15.769 33.639 15.769 7.387 0 20.585-3.028 49.79-29.212 10.458-9.377 21.513-20.47 32.536-32.582l122.864 43.003-7.265 49.032h-250.73z"/></g></svg>