<svg id="Capa_1" enable-background="new 0 0 512 512" height="512" viewBox="0 0 512 512" width="512" xmlns="http://www.w3.org/2000/svg"><g><path d="m383.467 225.715-.001-33.983c0-3.979-1.58-7.794-4.394-10.606l-176.732-176.733c-5.857-5.857-15.355-5.857-21.213 0l-176.733 176.734c-2.814 2.812-4.394 6.628-4.394 10.606v223.929c0 8.238 6.645 14.936 14.883 14.999l224.737 1.006c23.414 47.54 72.37 80.333 128.847 80.333 79.144 0 143.533-64.389 143.533-143.533 0-74.08-56.412-135.228-128.533-142.752zm-158.534 175.952h-66.4v-146.734h66.4zm15-176.734h-96.4c-8.284 0-15 6.716-15 15v161.615l-98.533-.769v-202.833l161.733-161.733 161.732 161.732.001 27.771c-39.989 4.172-75.142 24.832-98.533 55.04v-40.822c0-8.285-6.716-15.001-15-15.001zm128.534 257.067c-62.603 0-113.534-50.931-113.534-113.533s50.931-113.533 113.534-113.533 113.533 50.93 113.533 113.533-50.931 113.533-113.533 113.533z"/><path d="m373.309 354.27c-7.008-2.39-18.764-7.481-18.764-14.723 0-7.675 6.245-13.92 13.921-13.92 3.712 0 7.206 1.449 9.837 4.081 5.859 5.859 15.356 5.858 21.214.001s5.858-15.355.001-21.213c-4.62-4.621-10.089-8.082-16.052-10.246v-2.083c0-8.284-6.716-15-15-15s-15 6.716-15 15v2.1c-16.854 6.143-28.921 22.328-28.921 41.28 0 13.589 6.779 32.1 39.078 43.117 7.007 2.39 18.763 7.481 18.763 14.723 0 7.675-6.244 13.92-13.92 13.92-11.066 0-20.701-6.024-20.798-6.085-6.949-4.51-16.238-2.534-20.749 4.415s-2.534 16.238 4.415 20.749c1.247.815 9.861 6.244 22.132 9.128v1.255c0 8.284 6.716 15 15 15s15-6.716 15-15v-2.101c16.853-6.143 28.92-22.328 28.92-41.28 0-13.59-6.78-32.101-39.077-43.118z"/></g></svg>