<svg id="Capa_1" enable-background="new 0 0 512 512" height="512" viewBox="0 0 512 512" width="512" xmlns="http://www.w3.org/2000/svg"><g><path d="m496.997 15.118h-481.994c-8.286 0-15.003 6.715-15.003 15v451.765c0 8.284 6.717 15 15.003 15h481.993c8.286 0 15.003-6.716 15.003-15v-451.765c.001-8.285-6.716-15-15.002-15zm-15.004 60.235h-30.242v-30.235h30.242zm-60.249-30.235v30.235h-391.737v-30.235zm-391.737 421.764v-361.529h451.986v361.529z"/><path d="m310.559 236.758-112.967-90.353c-5.479-4.382-13.265-4.383-18.745 0l-112.967 90.353c-4.975 3.98-6.894 10.667-4.785 16.678s7.786 10.035 14.158 10.035h7.59v150.647c0 8.284 6.717 15 15.003 15h60.249 60.249 60.249c8.286 0 15.003-6.716 15.003-15v-150.647h7.59c6.372 0 12.049-4.024 14.158-10.035 2.11-6.011.191-12.699-4.785-16.678zm-122.339-59.431 70.195 56.144h-140.391zm-15.121 221.791v-52.823h30.242v52.823zm90.491 0h-30.242v-67.823c0-8.284-6.717-15-15.003-15h-60.249c-8.286 0-15.003 6.716-15.003 15v67.823h-30.243v-135.647h150.74z"/><path d="m436.747 150.647h-75.312c-8.286 0-15.003 6.716-15.003 15s6.717 15 15.003 15h75.312c8.286 0 15.003-6.716 15.003-15s-6.716-15-15.003-15z"/><path d="m436.747 210.882h-75.312c-8.286 0-15.003 6.716-15.003 15s6.717 15 15.003 15h75.312c8.286 0 15.003-6.716 15.003-15s-6.716-15-15.003-15z"/><path d="m436.747 271.118h-75.312c-8.286 0-15.003 6.716-15.003 15s6.717 15 15.003 15h75.312c8.286 0 15.003-6.716 15.003-15s-6.716-15-15.003-15z"/><path d="m436.747 331.353h-75.312c-8.286 0-15.003 6.716-15.003 15s6.717 15 15.003 15h75.312c8.286 0 15.003-6.716 15.003-15s-6.716-15-15.003-15z"/><path d="m436.747 391.588h-75.312c-8.286 0-15.003 6.716-15.003 15s6.717 15 15.003 15h75.312c8.286 0 15.003-6.716 15.003-15s-6.716-15-15.003-15z"/></g></svg>