<svg id="Capa_1" enable-background="new 0 0 512 512" viewBox="0 0 512 512" xmlns="http://www.w3.org/2000/svg"><g><path d="m512 118.064v-52.653c0-26.846-21.841-48.687-48.687-48.687h-272.704c-26.846 0-48.687 21.841-48.687 48.687v52.654c0 21.612 14.16 39.971 33.687 46.312v34.442c-51.902 7.302-91.966 51.997-91.966 105.881 0 12.915 2.302 25.303 6.517 36.775l-76.97 76.97c-8.505 8.497-13.19 19.8-13.19 31.825 0 12.024 4.685 23.327 13.181 31.817 8.499 8.506 19.802 13.19 31.826 13.19s23.327-4.684 31.821-13.186l76.975-76.975c11.472 4.214 23.859 6.516 36.774 6.516 43.639 0 81.249-26.279 97.855-63.839h174.88c26.847 0 48.688-21.841 48.688-48.688v-52.652c0-21.613-14.16-39.972-33.687-46.312v-35.764c19.527-6.341 33.687-24.7 33.687-46.313zm-340.077-52.653c0-10.304 8.383-18.687 18.687-18.687h272.704c10.304 0 18.687 8.383 18.687 18.687v52.654c0 10.304-8.383 18.687-18.687 18.687h-272.705c-10.304 0-18.687-8.383-18.687-18.687v-52.654zm33.687 132.354-.001-31.014h242.704v31.014zm-150 263.117c-5.586 5.823-15.628 5.821-21.216-.009-5.822-5.583-5.821-15.628.004-21.212l70.737-70.737c6.046 8.023 13.194 15.171 21.217 21.217zm134.967-79.25c-42.421 0-76.934-34.512-76.934-76.933 0-42.402 34.482-76.901 76.876-76.932h.115c42.394.031 76.876 34.53 76.876 76.932.001 42.421-34.512 76.933-76.933 76.933zm291.423-82.527c0 10.304-8.383 18.688-18.688 18.688h-166.604c.526-4.292.803-8.661.803-13.094 0-5.757-.463-11.407-1.344-16.92h140.819c8.284 0 15-6.716 15-15s-6.716-15-15-15h-150.335c-5.518-11.253-12.955-21.4-21.883-30.013l198.544-.001c10.305 0 18.688 8.383 18.688 18.688z"/><path d="m276.95 106.737h160.036c8.284 0 15-6.716 15-15s-6.716-15-15-15h-160.036c-8.284 0-15 6.716-15 15s6.716 15 15 15z"/><circle cx="217" cy="91.737" r="15"/></g><g/><g/><g/><g/><g/><g/><g/><g/><g/><g/><g/><g/><g/><g/><g/></svg>